PathFileType	4	(X/Y/Z)	16_2_101_p1_0-202.trc
DataRate	CameraRate	NumFrames	NumMarkers	Units	OrigDataRate	OrigDataStartFrame	OrigNumFrames
59.0	59.0	5	27	m	59.0	50	203
Frame#	Time	RHip			RKnee			RAnkle			RBigToe			RSmallToe			RHeel			LHip			LKnee			LAnkle			LBigToe			LSmallToe			LHeel			Neck			Head			Nose			RShoulder			RElbow			RWrist			RThumb			RIndex			RPinky			LShoulder			LElbow			LWrist			LThumb			LIndex			LPinky			
		X1	Y1	Z1	X2	Y2	Z2	X3	Y3	Z3	X4	Y4	Z4	X5	Y5	Z5	X6	Y6	Z6	X7	Y7	Z7	X8	Y8	Z8	X9	Y9	Z9	X10	Y10	Z10	X11	Y11	Z11	X12	Y12	Z12	X13	Y13	Z13	X14	Y14	Z14	X15	Y15	Z15	X16	Y16	Z16	X17	Y17	Z17	X18	Y18	Z18	X19	Y19	Z19	X20	Y20	Z20	X21	Y21	Z21	X22	Y22	Z22	X23	Y23	Z23	X24	Y24	Z24	X25	Y25	Z25	X26	Y26	Z26	X27	Y27	Z27	
50	0.847457627118644	0.3033894444919126	0.49201834707993664	0.5104439699853126	0.2928062144748782	0.6449469424352172	0.9666485672276459	0.26375016824661857	0.7537932767353002	1.3823548229101046	0.24541517878444094	0.4637394853265487	1.3715332483543454	0.30742684408370324	0.5103059395986895	1.38970729301234	0.23599818981761936	0.7950189137174986	1.4208646879921438	0.07719020690387782	0.5204517343638287	0.5169506130047242	0.07076173989990917	0.6228158742226119	0.9406355953210096	0.09282527774624931	0.7212629416796283	1.345755685701761	0.06473017386031239	0.449019388215294	1.3599738101521572	0.004194904636994927	0.5393439527182776	1.3762896554960435	0.11614589689150584	0.8159003221602389	1.433703476882869	0.18438206456014217	0.43435949557873277	-0.14642112692531972	0.21598841944392175	0.3738043777029559	-0.39617432689445087	0.19376365384022817	0.32314746482227863	-0.25104206698211917	0.35571957018500605	0.5050436221879107	-0.053339641704971456	0.448700627018972	0.49659265084877896	0.2268697229613949	0.4557584634257608	0.3403130802009392	0.46845702485058965	0.38467016694486905	0.21423981350637725	0.5498817490499485	0.3954398901656675	0.22580542884498433	0.569071752076119	0.42631249001862487	0.27810318625896413	0.5899062362814356	0.01321141472990134	0.49388115535249	-0.057645952906843885	-0.06166807453751996	0.4872272173386234	0.25442908158748756	-0.04479735332159186	0.39365642081700736	0.5261380316866209	0.029591389971147297	0.3716811231342391	0.6430020672918638	-0.020455332145726726	0.34099449777969554	0.6543391745449607	-0.0506672554730088	0.3660143527106867	0.6557445491926377
51	0.864406779661017	0.3036573698133729	0.4919559498358913	0.5104415597305227	0.2935205203834302	0.6445812420666256	0.9620898517469764	0.2593305781782009	0.7391621072362142	1.375983410390274	0.23687577200532164	0.4493255208778625	1.3646775470411494	0.30659251546131183	0.4817803098289643	1.37594931962815	0.23724692271826486	0.7972771690098494	1.4265510685947878	0.0769502569351014	0.5048182313201965	0.5140021705352347	0.07072791436343698	0.6227097344280055	0.9405914868108677	0.08937400075204736	0.7062982404396764	1.339510534800929	0.059048879670272274	0.4472716360010617	1.3634177495097621	0.004134416410597779	0.5390745246271038	1.3766552303602244	0.1160517436212378	0.8158294349297022	1.4340953296122978	0.18434170889235746	0.4342791204986735	-0.14643677939076763	0.2160673084858468	0.37461319959972755	-0.3929077857408341	0.19367229709847117	0.3230943668905893	-0.2510751817948916	0.3561341424393785	0.5060209014733007	-0.049770885910178975	0.4487229580645648	0.4962029489167198	0.22699235889057076	0.4567396886843638	0.34170787765667676	0.47605565610364164	0.40305756122567804	0.2250357651759498	0.5609594714442374	0.41247848150461086	0.22709324875027087	0.575279987004585	0.4527518366279288	0.31012484937786294	0.5936800214091763	0.01315219829419841	0.49404113835663416	-0.057610249830518975	-0.0661183010418614	0.5001047044351898	0.25269167805327314	-0.05149317909447692	0.3698881282070468	0.5253725616617065	-0.013084353412446568	0.4099082557729844	0.6532640080708748	-0.044584232674184904	0.35376809454343733	0.6583746197889835	-0.06590283992538878	0.3773298900924385	0.6645076436865689
52	0.8813559322033898	0.30371092245410136	0.49222394885072907	0.5103704316636203	0.2928262988758355	0.644781167531626	0.966682983951269	0.2593874182903057	0.7393621397270685	1.376252336815201	0.23698594694338201	0.4491501168133076	1.3646307750608608	0.30348688202742524	0.49767526132595685	1.3838580882183242	0.23738210832601472	0.7974424775148309	1.4267593762969235	0.06791493570995613	0.5336760562309522	0.5199097961587285	0.07156263723586576	0.6240907491614218	0.9452956218111317	0.08825726637777467	0.7037996666239897	1.3341567521206117	0.05901747132534899	0.4479056984415152	1.3636627204617786	0.004076786238611761	0.53923526202763	1.3770531767975263	0.11192018082313505	0.8026748179844886	1.423152179638034	0.1842977492252127	0.43424304488390336	-0.14643405519203537	0.21189909529500206	0.3730398300669721	-0.395895829706673	0.19389661388653087	0.3239154637043451	-0.2478819287880119	0.3561644855044261	0.5060771621354256	-0.0497408130745147	0.45272263423318543	0.5069553879422354	0.22457105756126974	0.4637439981714196	0.33971486751524316	0.47562882791145766	0.4256688298205119	0.2250729233561134	0.560674670715202	0.43802707582127404	0.22590929730539266	0.5780222478313015	0.46698503772483696	0.3327544055874856	0.6019632091677418	0.013069672809325486	0.4940225205641469	-0.0575942464001658	-0.0664133965304936	0.5004560717749076	0.25260240694934133	-0.06293761671598531	0.36916418780344074	0.5212796616895332	-0.040157637666818465	0.3805394091061535	0.6500928165434191	-0.05469353795449914	0.3638711663831288	0.6646377708629707	-0.08201453995338294	0.4168381320790539	0.6746108660391712
53	0.8983050847457628	0.3036514629702633	0.4918605340746493	0.5104021171929789	0.2927494079624159	0.6444053041587238	0.9668197672752521	0.2588432696514018	0.772339781457291	1.3954190115632534	0.24112321470846962	0.45035412171963984	1.3654927661990595	0.30637701153324637	0.48091226072396515	1.3758307032146362	0.23745919172052457	0.7977788970241555	1.4276116148330147	0.07319535066920024	0.5369834511295383	0.524577942525411	0.07063830281686904	0.621956309867999	0.9404488267005707	0.0892023540661161	0.7061976724585627	1.3395857551895862	0.05894557907465756	0.44817330349029755	1.363728543282975	0.0040337561578208435	0.5392178194826592	1.3775486736090026	0.11191905836723864	0.8027625810753656	1.4234093340316922	0.18427722260683124	0.43423300434751755	-0.14637988023288606	0.20838986856764494	0.38515656345948157	-0.39725268152227716	0.19359028200837494	0.3229458406628473	-0.25104707261158293	0.3560969867780747	0.5060051220705896	-0.049758718767160155	0.4527999137430727	0.5070320340064512	0.22461865593619817	0.4642876469043899	0.33984057181140437	0.4758807131935591	0.4478916596661106	0.19940903312499028	0.5609021181970523	0.45465236513239593	0.22266969372312512	0.5776779215165789	0.4770330719595023	0.34418338148142724	0.6037103942749175	0.013109596126722963	0.4941482658878028	-0.05756830950178675	-0.07075822748433518	0.5130701098696181	0.2506223848754966	-0.07805877900656534	0.4061907305727835	0.5250225642174402	-0.04858365112222638	0.38055718417500284	0.6467112976471636	-0.06199166056376853	0.3506229192308355	0.6617065989239471	-0.09891972351731876	0.44317233881906243	0.6725186659073932
54	0.9152542372881356	0.2959279726029386	0.5056850143638997	0.5133866012936086	0.2961819510528175	0.6283213788797494	0.9617348115272981	0.25846888785921146	0.7396828806467111	1.3810307240573019	0.2411021666153021	0.4508723502655756	1.365734344668286	0.3062672135161812	0.48170291384441616	1.376204827238534	0.23750562399741013	0.797519437000867	1.427273602478734	0.06648602799976286	0.5623154443102227	0.5250267294376064	0.07046185408621577	0.6221185799430735	0.9403470504482911	0.0848134740863351	0.7228228458334196	1.347182983456606	0.06444748069107922	0.45205751609826195	1.369529778856718	0.004019733128938472	0.5392492875075473	1.3779913555292604	0.11226834075042266	0.8018616708738882	1.4281751952829937	0.18058170930592368	0.44665716991830584	-0.1466303316631867	0.20829327391919625	0.38527386699341637	-0.39729007364609886	0.19359403161749303	0.3229937206592912	-0.2510549970709337	0.35608977051237006	0.5061038482471923	-0.04977801207601289	0.4535568342416682	0.5082716285557964	0.22795102122512131	0.4732891221334677	0.3513217973880778	0.4779223525994161	0.46569971733354315	0.2308043752713445	0.5714981929534463	0.48003308299061564	0.2521066355150108	0.5879775681465398	0.4773920082795454	0.3442896108618414	0.6082043990354217	0.013205405812577205	0.4942370884387658	-0.05412374770084313	-0.07043750501708473	0.5149457219612888	0.2516109849981103	-0.09718933666512576	0.44490395459246074	0.5334985984224585	-0.05715704219907451	0.36624404032223307	0.6364282922890355	-0.08988488333981852	0.38583991928228917	0.6721499860236082	-0.10662963311570964	0.4578788446631075	0.6752484748082925
